<svg width="178" height="81" viewBox="0 0 178 81" fill="none" xmlns="http://www.w3.org/2000/svg">
<path d="M142.979 22.6002C142.979 19.7335 143.479 17.2002 144.479 15.0002C145.479 12.8002 146.812 10.9669 148.479 9.5002C150.079 8.1002 151.879 7.03353 153.879 6.3002C155.945 5.56686 158.012 5.2002 160.079 5.2002C162.145 5.2002 164.179 5.56686 166.179 6.3002C168.245 7.03353 170.112 8.1002 171.779 9.5002C173.379 10.9669 174.679 12.8002 175.679 15.0002C176.679 17.2002 177.179 19.7335 177.179 22.6002V26.2002H166.979V22.6002C166.979 20.1335 166.279 18.3335 164.879 17.2002C163.545 16.0002 161.945 15.4002 160.079 15.4002C158.212 15.4002 156.579 16.0002 155.179 17.2002C153.845 18.3335 153.179 20.1335 153.179 22.6002V60.2002C153.179 62.6669 153.845 64.5002 155.179 65.7002C156.579 66.8335 158.212 67.4002 160.079 67.4002C161.945 67.4002 163.545 66.8335 164.879 65.7002C166.279 64.5002 166.979 62.6669 166.979 60.2002V46.8002H158.879V37.8002H177.179V60.2002C177.179 63.2002 176.679 65.7669 175.679 67.9002C174.679 70.0335 173.379 71.8002 171.779 73.2002C170.112 74.6669 168.245 75.7669 166.179 76.5002C164.179 77.2335 162.145 77.6002 160.079 77.6002C158.012 77.6002 155.945 77.2335 153.879 76.5002C151.879 75.7669 150.079 74.6669 148.479 73.2002C146.812 71.8002 145.479 70.0335 144.479 67.9002C143.479 65.7669 142.979 63.2002 142.979 60.2002V22.6002Z" fill="black"/>
<path d="M114.2 15.3998V37.5998H120C121.8 37.5998 123.233 37.3665 124.3 36.8998C125.367 36.3665 126.2 35.6331 126.8 34.6998C127.333 33.7665 127.7 32.6331 127.9 31.2998C128.1 29.8998 128.2 28.2998 128.2 26.4998C128.2 24.6998 128.1 23.1331 127.9 21.7998C127.7 20.3998 127.3 19.1998 126.7 18.1998C125.433 16.3331 123.033 15.3998 119.5 15.3998H114.2ZM104 76.9998V5.7998H120.4C132.4 5.7998 138.4 12.7665 138.4 26.6998C138.4 30.8998 137.733 34.4665 136.4 37.3998C135.133 40.3331 132.867 42.6998 129.6 44.4998L140.6 76.9998H129.8L120.3 46.5998H114.2V76.9998H104Z" fill="black"/>
<path d="M0 76.9998V5.7998H14.9C18.1667 5.7998 20.9333 6.2998 23.2 7.2998C25.5333 8.2998 27.4333 9.63314 28.9 11.2998C30.3667 12.9665 31.4 14.8998 32 17.0998C32.6667 19.2331 33 21.4665 33 23.7998V26.3998C33 28.3331 32.8333 29.9665 32.5 31.2998C32.2333 32.6331 31.8 33.7998 31.2 34.7998C30.0667 36.6665 28.3333 38.2665 26 39.5998C28.4 40.7331 30.1667 42.3998 31.3 44.5998C32.4333 46.7998 33 49.7998 33 53.5998V57.5998C33 63.8665 31.4667 68.6665 28.4 71.9998C25.4 75.3331 20.5667 76.9998 13.9 76.9998H0ZM10.2 43.9998V66.7998H14.6C16.6667 66.7998 18.2667 66.4998 19.4 65.8998C20.6 65.2998 21.5 64.4665 22.1 63.3998C22.7 62.3331 23.0667 61.0665 23.2 59.5998C23.3333 58.1331 23.4 56.5331 23.4 54.7998C23.4 52.9998 23.3 51.4331 23.1 50.0998C22.9 48.7665 22.5 47.6331 21.9 46.6998C21.2333 45.7665 20.3333 45.0998 19.2 44.6998C18.0667 44.2331 16.5667 43.9998 14.7 43.9998H10.2ZM10.2 15.3998V34.9998H14.8C18.2 34.9998 20.4667 34.1665 21.6 32.4998C22.8 30.7665 23.4 28.2665 23.4 24.9998C23.4 21.7998 22.7333 19.3998 21.4 17.7998C20.1333 16.1998 17.8 15.3998 14.4 15.3998H10.2Z" fill="black"/>
<path d="M58.2698 5.85271C67.8491 1.88992 81.6071 0.545084 89.5494 6.95858C97.4916 13.3722 99.5663 27.6061 96.9706 40.1803C94.427 52.693 87.0989 63.5561 76.4348 70.9285C65.7187 78.3624 51.6143 82.3677 45.3951 76.6649C39.1761 70.962 40.8412 55.551 40.974 45.0171C41.05 34.4878 39.5317 28.7837 41.4702 22.6135C43.3517 16.4481 48.7475 9.81076 58.2698 5.85271Z" fill="black"/>
<path d="M91.0663 28.5806C92.0291 39.8614 84.1107 49.7487 73.3802 50.6645C62.6496 51.5803 53.1703 43.1778 52.2076 31.8969C51.2448 20.6161 59.1632 10.7288 69.8937 9.81301C80.6243 8.89723 90.1036 17.2998 91.0663 28.5806Z" fill="#E9492D"/>
</svg>
