<svg width="179" height="75" viewBox="0 0 179 75" fill="none" xmlns="http://www.w3.org/2000/svg">
<path d="M143.979 19.6002C143.979 16.7335 144.479 14.2002 145.479 12.0002C146.479 9.8002 147.812 7.96686 149.479 6.5002C151.079 5.1002 152.879 4.03353 154.879 3.3002C156.945 2.56686 159.012 2.2002 161.079 2.2002C163.145 2.2002 165.179 2.56686 167.179 3.3002C169.245 4.03353 171.112 5.1002 172.779 6.5002C174.379 7.96686 175.679 9.8002 176.679 12.0002C177.679 14.2002 178.179 16.7335 178.179 19.6002V23.2002H167.979V19.6002C167.979 17.1335 167.279 15.3335 165.879 14.2002C164.545 13.0002 162.945 12.4002 161.079 12.4002C159.212 12.4002 157.579 13.0002 156.179 14.2002C154.845 15.3335 154.179 17.1335 154.179 19.6002V57.2002C154.179 59.6669 154.845 61.5002 156.179 62.7002C157.579 63.8335 159.212 64.4002 161.079 64.4002C162.945 64.4002 164.545 63.8335 165.879 62.7002C167.279 61.5002 167.979 59.6669 167.979 57.2002V43.8002H159.879V34.8002H178.179V57.2002C178.179 60.2002 177.679 62.7669 176.679 64.9002C175.679 67.0335 174.379 68.8002 172.779 70.2002C171.112 71.6669 169.245 72.7669 167.179 73.5002C165.179 74.2335 163.145 74.6002 161.079 74.6002C159.012 74.6002 156.945 74.2335 154.879 73.5002C152.879 72.7669 151.079 71.6669 149.479 70.2002C147.812 68.8002 146.479 67.0335 145.479 64.9002C144.479 62.7669 143.979 60.2002 143.979 57.2002V19.6002Z" fill="black"/>
<path d="M115.2 12.3998V34.5998H121C122.8 34.5998 124.233 34.3665 125.3 33.8998C126.367 33.3665 127.2 32.6331 127.8 31.6998C128.333 30.7665 128.7 29.6331 128.9 28.2998C129.1 26.8998 129.2 25.2998 129.2 23.4998C129.2 21.6998 129.1 20.1331 128.9 18.7998C128.7 17.3998 128.3 16.1998 127.7 15.1998C126.433 13.3331 124.033 12.3998 120.5 12.3998H115.2ZM105 73.9998V2.7998H121.4C133.4 2.7998 139.4 9.76647 139.4 23.6998C139.4 27.8998 138.733 31.4665 137.4 34.3998C136.133 37.3331 133.867 39.6998 130.6 41.4998L141.6 73.9998H130.8L121.3 43.5998H115.2V73.9998H105Z" fill="black"/>
<path d="M0 73.9998V2.7998H14.9C18.1667 2.7998 20.9333 3.2998 23.2 4.2998C25.5333 5.2998 27.4333 6.63314 28.9 8.2998C30.3667 9.96647 31.4 11.8998 32 14.0998C32.6667 16.2331 33 18.4665 33 20.7998V23.3998C33 25.3331 32.8333 26.9665 32.5 28.2998C32.2333 29.6331 31.8 30.7998 31.2 31.7998C30.0667 33.6665 28.3333 35.2665 26 36.5998C28.4 37.7331 30.1667 39.3998 31.3 41.5998C32.4333 43.7998 33 46.7998 33 50.5998V54.5998C33 60.8665 31.4667 65.6665 28.4 68.9998C25.4 72.3331 20.5667 73.9998 13.9 73.9998H0ZM10.2 40.9998V63.7998H14.6C16.6667 63.7998 18.2667 63.4998 19.4 62.8998C20.6 62.2998 21.5 61.4665 22.1 60.3998C22.7 59.3331 23.0667 58.0665 23.2 56.5998C23.3333 55.1331 23.4 53.5331 23.4 51.7998C23.4 49.9998 23.3 48.4331 23.1 47.0998C22.9 45.7665 22.5 44.6331 21.9 43.6998C21.2333 42.7665 20.3333 42.0998 19.2 41.6998C18.0667 41.2331 16.5667 40.9998 14.7 40.9998H10.2ZM10.2 12.3998V31.9998H14.8C18.2 31.9998 20.4667 31.1665 21.6 29.4998C22.8 27.7665 23.4 25.2665 23.4 21.9998C23.4 18.7998 22.7333 16.3998 21.4 14.7998C20.1333 13.1998 17.8 12.3998 14.4 12.3998H10.2Z" fill="black"/>
<path d="M62.2549 2.06562C72.1364 -1.06825 85.9589 -1.23831 93.3271 5.82734C100.695 12.8931 101.552 27.2519 97.8965 39.5598C94.298 51.8109 86.0727 62.0114 74.8203 68.4504C63.5109 74.9461 49.117 77.7375 43.4053 71.5266C37.6938 65.3154 40.6632 50.1019 41.6914 39.6174C42.6624 29.1327 41.6347 23.3202 44.0908 17.3371C46.4898 11.354 52.4305 5.1996 62.2549 2.06562ZM73.5 7.00019C62.7304 7.00019 54 16.1784 54 27.5002C54 38.822 62.7304 48.0002 73.5 48.0002C84.2695 48.0002 93 38.822 93 27.5002C93 16.1784 84.2695 7.00019 73.5 7.00019Z" fill="black"/>
</svg>
