<svg width="1025" height="301" viewBox="0 0 1025 301" fill="none" xmlns="http://www.w3.org/2000/svg">
<path d="M105 7.59961C130.2 7.59961 150.2 13.8671 165 26.4004C179.933 38.9337 187.4 55.867 187.4 77.2002V81.4004L187.39 82.7812C187.168 96.9935 183.504 109.266 176.4 119.6C169.067 130.266 158.466 138.266 144.6 143.6V145.4C161.666 149.8 174.934 158.067 184.4 170.2C194 182.333 198.8 197.133 198.8 214.6V219.2L198.789 220.619C198.567 235.223 194.904 247.95 187.8 258.8C180.466 270 170.066 278.666 156.6 284.8C143.266 290.933 127.4 294 109 294H0V7.59961H105ZM60.4004 244.4H100.6C112.6 244.4 121.8 241.466 128.2 235.6C134.529 229.787 137.792 221.66 137.99 211.218L138 210.2V206.6C138 196.008 134.809 187.794 128.428 181.957L127.8 181.4C121.133 175.4 111.6 172.4 99.2002 172.4H60.4004V244.4ZM60.4004 57.2002V123.2H92.2002C103.267 123.2 111.733 120.467 117.6 115C123.6 109.533 126.6 101.733 126.6 91.5996V88.7998C126.6 78.8539 123.784 71.2232 118.153 65.9072L117.6 65.4004C111.916 60.1045 103.793 57.3734 93.2295 57.208L92.2002 57.2002H60.4004Z" fill="black"/>
<path d="M920.443 0.799805C945.11 0.799805 965.644 7.06631 982.044 19.5996C998.577 31.9996 1010.31 50.1333 1017.24 74L961.844 93C958.51 81 953.51 72.2665 946.844 66.7998C940.515 61.3748 932.183 58.5777 921.85 58.4082L920.844 58.4004C903.11 58.4004 889.577 65.9334 880.244 81L879.81 81.7109C870.766 96.7493 866.244 118.313 866.244 146.4V156L866.258 158.668C866.544 186.027 871.273 207.004 880.443 221.6C889.893 236.3 903.478 243.765 921.197 243.994L922.044 244C936.444 244 947.577 239.2 955.443 229.6C963.443 219.866 967.443 206.333 967.443 189V180.2H911.844V130.8H1024.24V176.4L1024.24 178.256C1023.96 217.089 1015.03 247.138 997.443 268.4C979.71 290 954.443 300.8 921.644 300.8C897.887 300.8 877.297 295.116 859.871 283.746L859.044 283.2C841.444 271.334 827.91 254.533 818.443 232.8C809.273 211.746 804.544 186.75 804.258 157.812L804.244 155V147.4C804.244 117.738 808.766 92.0799 817.81 70.4277L818.244 69.4004C827.711 47.4004 841.11 30.4663 858.443 18.5996C875.91 6.73301 896.577 0.79987 920.443 0.799805ZM768.796 101.668C768.764 110.614 767.805 118.968 765.923 126.731C766.499 118.182 767.449 109.821 768.796 101.668Z" fill="black"/>
<path d="M667.8 7.59961C688.733 7.59961 706.733 11.2664 721.8 18.5996C736.866 25.7996 748.466 36.2 756.6 49.7998C764.733 63.3998 768.8 79.6004 768.8 98.4004V101.2L768.788 102.955C768.542 121.01 764.479 136.625 756.6 149.8C748.466 163.4 736.866 173.867 721.8 181.2C721.457 181.367 721.112 181.529 720.767 181.691L785.2 294H715.8L659.027 192.2H636V294H574.8V7.59961H667.8ZM636 63.2002V140.2H666.4C679.067 140.2 688.933 137.066 696 130.8C702.975 124.6 706.571 116.085 706.789 105.255L706.8 104.2V99.4004C706.8 88.0671 703.2 79.1998 696 72.7998C689.154 66.5998 679.68 63.4027 667.579 63.209L666.4 63.2002H636ZM807.749 105.27C807.523 114.468 806.523 123.493 804.659 132.262C805.186 122.817 806.213 113.82 807.749 105.27Z" fill="black"/>
<path d="M449.914 38.9141C472.005 38.9141 489.914 56.8228 489.914 78.9141V126.343H459.914V78.9141C459.914 73.5638 455.712 69.1945 450.429 68.9268L449.914 68.9141H409.685V38.9141H449.914Z" fill="#363636"/>
<path d="M341.8 21C341.8 12.7157 348.516 6 356.8 6H409.086C417.37 6 424.086 12.7157 424.086 21V73.2857C424.086 81.57 417.37 88.2857 409.086 88.2857H356.8C348.516 88.2857 341.8 81.57 341.8 73.2857V21Z" fill="#4D17F5"/>
<path d="M442.6 124.886C442.6 116.601 449.315 109.886 457.6 109.886H509.885C518.17 109.886 524.885 116.601 524.885 124.886V177.171C524.885 185.456 518.17 192.171 509.885 192.171H457.6C449.315 192.171 442.6 185.456 442.6 177.171V124.886Z" fill="#05A53F"/>
<path d="M378.441 218.272L357.228 239.485L295.513 177.771L316.727 156.558L378.441 218.272Z" fill="#363636"/>
<path d="M341.8 226.714C341.8 218.43 348.516 211.714 356.8 211.714H409.086C417.37 211.714 424.086 218.43 424.086 226.714V279C424.086 287.284 417.37 294 409.086 294H356.8C348.516 294 341.8 287.284 341.8 279V226.714Z" fill="#C27BFF"/>
<path d="M241 124.886C241 116.601 247.716 109.886 256 109.886H308.286C316.57 109.886 323.286 116.601 323.286 124.886V177.171C323.286 185.456 316.57 192.171 308.286 192.171H256C247.716 192.171 241 185.456 241 177.171V124.886Z" fill="#EA492D"/>
</svg>
