<svg width="190" height="229" viewBox="0 0 190 229" fill="none" xmlns="http://www.w3.org/2000/svg">
<path d="M22.4707 149.684C39.2707 192.084 25.4707 218.351 16.4707 226.184L115.97 223.684C116.47 217.351 119.37 203.484 126.97 198.684C136.47 192.684 151.47 198.684 160.97 193.684C170.47 188.684 164.97 180.184 165.97 172.184C166.97 164.184 169.47 163.184 171.47 159.184C173.47 155.184 166.97 153.684 165.97 153.184C164.97 152.684 172.47 148.684 173.47 147.184C174.47 145.684 167.47 135.684 179.97 131.184C192.47 126.684 183.97 114.684 181.97 112.684C179.97 110.684 174.97 104.684 171.47 99.684C167.97 94.684 166.47 91.184 168.47 79.184C170.47 67.184 170.95 66.7949 166.892 55.2949C163.892 46.7949 157.892 35.7949 143.392 21.2946C124.885 2.78769 89.7867 -2.54019 57.8913 9.29439C30.3677 19.5068 11.5482 36.0732 5.89158 57.184C0.234969 78.2947 1.47074 96.6842 22.4707 149.684Z" fill="white" stroke="#363636" stroke-width="5"/>
<path fill-rule="evenodd" clip-rule="evenodd" d="M87.457 24C98.6609 24 108.475 30.0291 113.922 39.0625C114.104 39.0594 114.287 39.0566 114.471 39.0566C131.836 39.0566 145.914 52.9358 145.914 70.0566L145.903 70.8564C145.761 76.386 144.15 81.5551 141.44 86C144.28 90.6586 145.914 96.1126 145.914 101.943L145.903 102.743C145.473 119.494 131.565 132.943 114.471 132.943C114.288 132.943 114.105 132.94 113.923 132.937C108.477 141.971 98.6615 148.001 87.457 148.001L86.6572 147.99C75.7867 147.711 66.3085 141.755 60.9922 132.937C60.8093 132.94 60.626 132.943 60.4424 132.943C43.0772 132.943 29 119.064 29 101.943C29 96.1127 30.6334 90.6585 33.4727 86C30.6334 81.3415 29 75.8873 29 70.0566C29 52.936 43.0772 39.0569 60.4424 39.0566C60.6257 39.0566 60.8086 39.0594 60.9912 39.0625C66.4376 30.0289 76.253 24 87.457 24ZM87.457 117.813C82.976 125.212 75.4576 130.615 66.5986 132.349C71.3498 138.825 78.9448 143.001 87.457 143.001C95.9695 143.001 103.564 138.825 108.315 132.348C99.4564 130.614 91.9382 125.212 87.457 117.813ZM36.7363 90.4209C34.9843 93.8993 34 97.813 34 101.943C34 115.608 44.76 126.908 58.5264 127.875C57.1901 124.363 56.457 120.547 56.457 116.558C56.4571 110.921 57.9203 105.631 60.4814 101.056C60.4684 101.056 60.4554 101.057 60.4424 101.057C50.9833 101.057 42.5004 96.9379 36.7363 90.4209ZM138.176 90.4189C132.412 96.9362 123.93 101.057 114.471 101.057C114.458 101.057 114.445 101.056 114.432 101.056C116.993 105.631 118.457 110.921 118.457 116.558C118.457 120.548 117.722 124.363 116.386 127.875C130.153 126.909 140.914 115.609 140.914 101.943C140.914 97.8121 139.929 93.8979 138.176 90.4189ZM84.1475 90.4189C79.7255 95.4187 73.7048 99.0064 66.8691 100.406C63.4799 104.865 61.4571 110.461 61.457 116.558C61.457 120.555 62.3279 124.337 63.8818 127.725C73.3327 126.52 81.1751 120.42 84.7705 112.139C83.643 108.946 83.0283 105.515 83.0283 101.943C83.0283 98.3711 83.6428 94.9405 84.7705 91.7471C84.5754 91.2977 84.3672 90.8551 84.1475 90.4189ZM90.7637 90.4199C90.5443 90.8555 90.3375 91.2982 90.1426 91.7471C91.2704 94.9406 91.8857 98.371 91.8857 101.943L91.875 102.743C91.7906 106.028 91.1846 109.184 90.1416 112.138C93.7366 120.42 101.58 126.52 111.031 127.725C112.585 124.337 113.457 120.555 113.457 116.558C113.457 110.461 111.433 104.866 108.044 100.407C101.208 99.0073 95.1857 95.4199 90.7637 90.4199ZM114.471 75.9434C113.203 75.9434 111.956 76.0321 110.737 76.2012C106.601 80.9694 101.066 84.4557 94.7803 86C101.065 87.5441 106.601 91.0302 110.737 95.7979C111.956 95.9669 113.203 96.0566 114.471 96.0566C122.989 96.0566 130.53 92.1085 135.356 86C130.53 79.8915 122.989 75.9434 114.471 75.9434ZM60.4424 75.9434C51.9237 75.9435 44.3833 79.8914 39.5566 86C44.3833 92.1086 51.9237 96.0565 60.4424 96.0566C61.7105 96.0566 62.9567 95.9669 64.1758 95.7979C68.3115 91.0302 73.8478 87.5443 80.1328 86C73.8473 84.4556 68.3106 80.9695 64.1748 76.2012C62.9561 76.0322 61.7101 75.9434 60.4424 75.9434ZM63.8818 44.2744C62.3276 47.6622 61.4571 51.4444 61.457 55.4424C61.457 61.5386 63.4798 67.1332 66.8682 71.5918C73.7039 72.9913 79.7252 76.5797 84.1475 81.5791C84.367 81.1432 84.5755 80.7011 84.7705 80.252C83.643 77.0588 83.0283 73.6286 83.0283 70.0566C83.0283 66.4844 83.6428 63.0538 84.7705 59.8604C81.1749 51.5793 73.3324 45.4788 63.8818 44.2744ZM116.386 44.124C117.722 47.6361 118.457 51.4521 118.457 55.4424C118.457 61.0792 116.993 66.3684 114.432 70.9434C114.445 70.9433 114.458 70.9434 114.471 70.9434C123.93 70.9434 132.411 75.0625 138.176 81.5791C139.928 78.1006 140.914 74.1873 140.914 70.0566C140.914 56.3915 130.153 45.0902 116.386 44.124ZM111.031 44.2744C101.581 45.4789 93.738 51.5793 90.1426 59.8604C91.2704 63.0538 91.8857 66.4842 91.8857 70.0566L91.875 70.8564C91.7906 74.1408 91.1846 77.297 90.1416 80.251C90.3366 80.7001 90.5451 81.1422 90.7646 81.5781C95.1867 76.5787 101.209 72.9914 108.045 71.5918C111.433 67.1332 113.457 61.5388 113.457 55.4424C113.457 51.4443 112.586 47.6623 111.031 44.2744ZM58.5273 44.124C44.7605 45.0904 34 56.3916 34 70.0566C34 74.1867 34.9846 78.1 36.7363 81.5781C42.5004 75.0615 50.9836 70.9435 60.4424 70.9434C60.4551 70.9434 60.4678 70.9433 60.4805 70.9434C57.9198 66.3686 56.457 61.0789 56.457 55.4424C56.4571 51.4523 57.1908 47.6361 58.5273 44.124ZM87.457 29C78.9447 29 71.3498 33.1757 66.5986 39.6523C75.4576 41.3862 82.9749 46.789 87.4561 54.1875C91.937 46.7887 99.4553 41.3853 108.314 39.6514C103.563 33.1754 95.9689 29 87.457 29Z" fill="#363636"/>
<path d="M36.7363 90.4209C34.9843 93.8993 34 97.813 34 101.943C34 115.608 44.76 126.908 58.5264 127.875C57.1901 124.363 56.457 120.547 56.457 116.558C56.4571 110.921 57.9203 105.631 60.4814 101.056C60.4684 101.056 60.4554 101.057 60.4424 101.057C50.9833 101.057 42.5004 96.9379 36.7363 90.4209Z" fill="#C27BFF"/>
<path d="M138.176 90.4189C132.412 96.9362 123.93 101.057 114.471 101.057C114.458 101.057 114.445 101.056 114.432 101.056C116.993 105.631 118.457 110.921 118.457 116.558C118.457 120.548 117.722 124.363 116.386 127.875C130.153 126.909 140.914 115.609 140.914 101.943C140.914 97.8121 139.929 93.8979 138.176 90.4189Z" fill="#F89244"/>
<path d="M87.457 29C78.9447 29 71.3498 33.1757 66.5986 39.6523C75.4576 41.3862 82.9749 46.789 87.4561 54.1875C91.937 46.7887 99.4553 41.3853 108.314 39.6514C103.563 33.1754 95.9689 29 87.457 29Z" fill="#ADD333"/>
<path d="M58.5273 44.124C44.7605 45.0904 34 56.3916 34 70.0566C34 74.1867 34.9846 78.1 36.7363 81.5781C42.5004 75.0615 50.9836 70.9435 60.4424 70.9434H60.4805C57.9198 66.3686 56.457 61.0789 56.457 55.4424C56.4571 51.4523 57.1908 47.6361 58.5273 44.124Z" fill="#EA492D"/>
<path d="M116.386 44.124C117.722 47.6361 118.457 51.4521 118.457 55.4424C118.457 61.0792 116.993 66.3684 114.432 70.9434H114.471C123.93 70.9434 132.411 75.0625 138.176 81.5791C139.928 78.1006 140.914 74.1873 140.914 70.0566C140.914 56.3915 130.153 45.0902 116.386 44.124Z" fill="#4D17F5"/>
<path d="M87.457 117.813C82.976 125.212 75.4576 130.615 66.5986 132.349C71.3498 138.825 78.9448 143.001 87.457 143.001C95.9695 143.001 103.564 138.825 108.315 132.348C99.4564 130.614 91.9382 125.212 87.457 117.813Z" fill="#FEDF47"/>
<path d="M63.8818 44.2744C62.3276 47.6622 61.4571 51.4444 61.457 55.4424C61.457 61.5386 63.4798 67.1332 66.8682 71.5918C73.7039 72.9913 79.7252 76.5797 84.1475 81.5791C84.367 81.1432 84.5755 80.7011 84.7705 80.252C83.643 77.0588 83.0283 73.6286 83.0283 70.0566C83.0283 66.4844 83.6428 63.0538 84.7705 59.8604C81.1749 51.5793 73.3324 45.4788 63.8818 44.2744Z" fill="#ECEDE8"/>
<path d="M60.4424 75.9434C51.9237 75.9435 44.3833 79.8914 39.5566 86C44.3833 92.1086 51.9237 96.0565 60.4424 96.0566C61.7105 96.0566 62.9567 95.9669 64.1758 95.7979C68.3115 91.0302 73.8478 87.5443 80.1328 86C73.8473 84.4556 68.3106 80.9695 64.1748 76.2012C62.9561 76.0322 61.7101 75.9434 60.4424 75.9434Z" fill="#ECEDE8"/>
<path d="M84.1475 90.4189C79.7255 95.4187 73.7048 99.0064 66.8691 100.406C63.4799 104.865 61.4571 110.461 61.457 116.558C61.457 120.555 62.3279 124.337 63.8818 127.725C73.3327 126.52 81.1751 120.42 84.7705 112.139C83.643 108.946 83.0283 105.515 83.0283 101.943C83.0283 98.3711 83.6428 94.9405 84.7705 91.7471C84.5754 91.2977 84.3672 90.8551 84.1475 90.4189Z" fill="#ECEDE8"/>
<path d="M90.7637 90.4199C90.5443 90.8555 90.3375 91.2982 90.1426 91.7471C91.2704 94.9406 91.8857 98.371 91.8857 101.943L91.875 102.743C91.7906 106.028 91.1846 109.184 90.1416 112.138C93.7366 120.42 101.58 126.52 111.031 127.725C112.585 124.337 113.457 120.555 113.457 116.558C113.457 110.461 111.433 104.866 108.044 100.407C101.208 99.0073 95.1857 95.4199 90.7637 90.4199Z" fill="#ECEDE8"/>
<path d="M114.471 75.9434C113.203 75.9434 111.956 76.0321 110.737 76.2012C106.601 80.9694 101.066 84.4557 94.7803 86C101.065 87.5441 106.601 91.0302 110.737 95.7979C111.956 95.9669 113.203 96.0566 114.471 96.0566C122.989 96.0566 130.53 92.1085 135.356 86C130.53 79.8915 122.989 75.9434 114.471 75.9434Z" fill="#ECEDE8"/>
<path d="M111.031 44.2744C101.581 45.4789 93.738 51.5793 90.1426 59.8604C91.2704 63.0538 91.8857 66.4842 91.8857 70.0566L91.875 70.8564C91.7906 74.1408 91.1846 77.297 90.1416 80.251C90.3366 80.7001 90.5451 81.1422 90.7646 81.5781C95.1867 76.5787 101.209 72.9914 108.045 71.5918C111.433 67.1332 113.457 61.5388 113.457 55.4424C113.457 51.4443 112.586 47.6623 111.031 44.2744Z" fill="#ECEDE8"/>
</svg>
