<svg width="137" height="140" viewBox="0 0 137 140" fill="none" xmlns="http://www.w3.org/2000/svg">
<path d="M101.556 16C112.294 16 121 24.808 121 35.6732V59H106.417V35.6732C106.417 33.0417 104.374 30.8928 101.806 30.7611L101.556 30.7549H82V16H101.556Z" fill="#363636"/>
<path d="M48 7.29167C48 3.2646 51.3462 0 55.474 0H81.526C85.6538 0 89 3.26459 89 7.29167V32.7083C89 36.7354 85.6538 40 81.526 40H55.474C51.3462 40 48 36.7354 48 32.7083V7.29167Z" fill="#4D17F5"/>
<path d="M98 58.2917C98 54.2646 101.183 51 105.109 51H129.891C133.817 51 137 54.2646 137 58.2917V83.7083C137 87.7354 133.817 91 129.891 91H105.109C101.183 91 98 87.7354 98 83.7083V58.2917Z" fill="#05A53F"/>
<path d="M66.3123 103.202L56.0041 113.51L26.015 83.5211L36.3232 73.2129L66.3123 103.202Z" fill="#363636"/>
<path d="M48 107.292C48 103.265 51.3462 100 55.474 100H81.526C85.6538 100 89 103.265 89 107.292V132.708C89 136.735 85.6538 140 81.526 140H55.474C51.3462 140 48 136.735 48 132.708V107.292Z" fill="#C27BFF"/>
<path d="M0 58.2917C0 54.2646 3.18298 51 7.10938 51H31.8906C35.817 51 39 54.2646 39 58.2917V83.7083C39 87.7354 35.817 91 31.8906 91H7.10938C3.18298 91 0 87.7354 0 83.7083V58.2917Z" fill="#EA492D"/>
</svg>
